<?xml version="1.0" encoding="UTF-8" standalone="no"?>
<!-- Created with Inkscape (http://www.inkscape.org/) -->

<svg
   xmlns:dc="http://purl.org/dc/elements/1.1/"
   xmlns:cc="http://creativecommons.org/ns#"
   xmlns:rdf="http://www.w3.org/1999/02/22-rdf-syntax-ns#"
   xmlns:svg="http://www.w3.org/2000/svg"
   xmlns="http://www.w3.org/2000/svg"
   xmlns:sodipodi="http://sodipodi.sourceforge.net/DTD/sodipodi-0.dtd"
   xmlns:inkscape="http://www.inkscape.org/namespaces/inkscape"
   id="svg3341"
   version="1.1"
   inkscape:version="0.91 r13725"
   xml:space="preserve"
   width="250"
   height="250"
   viewBox="0 0 250 250"
   sodipodi:docname="pad.svg"><metadata
     id="metadata3347"><rdf:RDF><cc:Work
         rdf:about=""><dc:format>image/svg+xml</dc:format><dc:type
           rdf:resource="http://purl.org/dc/dcmitype/StillImage" /><dc:title></dc:title></cc:Work></rdf:RDF></metadata><defs
     id="defs3345"><clipPath
       clipPathUnits="userSpaceOnUse"
       id="clipPath3355"><path
         d="M 0,200 200,200 200,0 0,0 0,200 Z"
         id="path3357"
         inkscape:connector-curvature="0" /></clipPath></defs><sodipodi:namedview
     pagecolor="#ffffff"
     bordercolor="#666666"
     borderopacity="1"
     objecttolerance="10"
     gridtolerance="10"
     guidetolerance="10"
     inkscape:pageopacity="0"
     inkscape:pageshadow="2"
     inkscape:window-width="1536"
     inkscape:window-height="801"
     id="namedview3343"
     showgrid="false"
     inkscape:zoom="0.944"
     inkscape:cx="125"
     inkscape:cy="125"
     inkscape:window-x="-8"
     inkscape:window-y="-8"
     inkscape:window-maximized="1"
     inkscape:current-layer="g3349" /><g
     id="g3349"
     inkscape:groupmode="layer"
     inkscape:label="LP_shape-01"
     transform="matrix(1.25,0,0,-1.25,0,250)"><g
       id="g3351"
       transform="matrix(1.2310865,0,0,1.2311856,-17.85691,-27.66077)"><g
         id="g3353"
         clip-path="url(#clipPath3355)"><g
           id="g3359"
           transform="translate(95.728,22.4668)"><path
             d="m 0,0 c -44.822,-0.035 -81.187,36.271 -81.223,81.092 0,0.156 0,0.312 0.001,0.468 0.037,10.768 2.266,21.416 6.55,31.296 8.422,19.394 23.936,34.836 43.369,43.168 9.899,4.244 20.558,6.428 31.329,6.421 l 0.09,0 c 7.594,-0.004 15.15,-1.071 22.449,-3.172 3.145,-0.906 6.731,-3.521 6.984,-6.24 1.198,-12.946 7.819,-22.008 14.35,-27.833 8.732,-7.768 17.257,-13.153 27.834,-14.377 3.372,-0.388 5.457,-3.968 6.394,-7.256 2.059,-7.23 3.105,-14.711 3.108,-22.228 C 81.254,70.563 79.079,59.894 74.84,49.984 66.504,30.55 51.057,15.035 31.659,6.616 21.772,2.326 11.114,0.095 0.336,0.059 l -0.323,0 L 0,0 Z"
             style="fill:#000000;fill-opacity:1;fill-rule:nonzero;stroke:none"
             id="path3361"
             inkscape:connector-curvature="0" /></g></g></g></g></svg>